<?xml version="1.0" encoding="UTF-8"?>
<svg width="48px" height="48px" viewBox="0 0 48 48" version="1.1" xmlns="http://www.w3.org/2000/svg" xmlns:xlink="http://www.w3.org/1999/xlink">
    <title>Icon-Resource/Database/Res_Amazon-ElastiCache_ElastiCache-for-Redis_48</title>
    <g id="Icon-Resource/Database/Res_Amazon-ElastiCache_ElastiCache-for-Redis_48" stroke="none" stroke-width="1" fill="none" fill-rule="evenodd">
        <path transform="matrix(0.8,0,0,0.8,4.6,3.9)" d="M 43.2 11 C 43.2 11.9 43.9 12.5 44.7 12.5 C 45.3 12.5 45.7 13 45.7 13.5 L 45.7 29.5 C 45.7 30 45.3 30.5 44.7 30.5 L 36.9 30.5 L 36.9 28.5 L 40.6 28.5 L 40.6 26.6 L 36.9 26.6 L 36.9 24.6 L 41.6 24.6 C 42.1 24.6 42.6 25 42.6 25.6 L 42.6 28.5 L 43.7 28.5 L 43.7 14.4 C 42.3 14 41.2 12.6 41.2 11 C 41.2 9.5 42.3 8.1 43.7 7.7 L 43.7 5.6 L 3.7 5.6 L 3.7 7.7 C 5.1 8.1 6.2 9.5 6.2 11 C 6.2 12.6 5.1 14 3.7 14.4 L 3.7 28.5 L 4.8 28.5 L 4.8 25.6 C 4.8 25 5.3 24.6 5.8 24.6 L 10.5 24.6 L 10.5 26.6 L 6.8 26.6 L 6.8 28.5 L 10.5 28.5 L 10.5 30.5 L 2.7 30.5 C 2.1 30.5 1.7 30 1.7 29.5 L 1.7 13.5 C 1.7 13 2.1 12.5 2.7 12.5 C 3.5 12.5 4.2 11.9 4.2 11 C 4.2 10.2 3.5 9.6 2.7 9.6 C 2.1 9.6 1.7 9.1 1.7 8.6 L 1.7 4.6 C 1.7 4 2.1 3.6 2.7 3.6 L 44.7 3.6 C 45.3 3.6 45.7 4 45.7 4.6 L 45.7 8.6 C 45.7 9.1 45.3 9.6 44.7 9.6 C 43.9 9.6 43.2 10.2 43.2 11 L 43.2 11 Z M 23.9 32.6 L 21.8 32.6 L 21.8 28.7 L 23.9 28.7 C 25.2 28.7 25.9 29.3 25.9 30.7 C 25.9 32 25.2 32.6 23.9 32.6 L 23.9 32.6 Z M 27.4 32.6 C 27.8 32 28 31.4 28 30.6 C 28 29.5 27.7 28.7 27 28 C 26.3 27.4 25.3 27.1 24.2 27.1 L 19.7 27.1 L 19.7 38.9 L 21.8 38.9 L 21.8 34.2 L 23.9 34.2 L 26.7 38.9 L 28.8 38.9 L 25.7 33.9 C 26.5 33.6 27 33.2 27.4 32.6 L 27.4 32.6 Z M 9.9 20.7 L 11.3 20.7 L 11.3 22.7 L 8.9 22.7 C 8.4 22.7 7.9 22.2 7.9 21.7 L 7.9 8.5 C 7.9 7.9 8.4 7.5 8.9 7.5 L 13.6 7.5 C 14.1 7.5 14.6 7.9 14.6 8.5 L 14.6 14.7 L 12.6 14.7 L 12.6 9.5 L 9.9 9.5 L 9.9 20.7 Z M 37.5 20.7 L 37.5 9.5 L 34.8 9.5 L 34.8 14.7 L 32.8 14.7 L 32.8 8.5 C 32.8 7.9 33.3 7.5 33.8 7.5 L 38.5 7.5 C 39 7.5 39.5 7.9 39.5 8.5 L 39.5 21.7 C 39.5 22.2 39 22.7 38.5 22.7 L 36.9 22.7 L 36.9 20.7 L 37.5 20.7 Z M 29.7 13.9 L 29.7 9.5 L 26.3 9.5 L 26.3 13.1 L 24.3 13.1 L 24.3 8.5 C 24.3 7.9 24.7 7.5 25.3 7.5 L 30.7 7.5 C 31.3 7.5 31.7 7.9 31.7 8.5 L 31.7 13.9 L 29.7 13.9 Z M 21.1 13.1 L 21.1 9.5 L 17.7 9.5 L 17.7 13.9 L 15.7 13.9 L 15.7 8.5 C 15.7 7.9 16.1 7.5 16.7 7.5 L 22.1 7.5 C 22.7 7.5 23.1 7.9 23.1 8.5 L 23.1 13.1 L 21.1 13.1 Z M 31.4 29.9 C 32.3 29.6 33 29.3 33.6 29 L 33.6 33.3 C 33.6 33.6 32.9 34.4 30.8 35 L 31.4 36.9 C 32.3 36.6 33 36.3 33.6 36 L 33.6 39.8 C 33.6 40.8 29.8 42.5 23.7 42.5 C 17.6 42.5 13.8 40.8 13.8 39.8 L 13.8 36 C 14.4 36.3 15.1 36.7 16 36.9 L 16.6 35 C 14.6 34.4 13.8 33.6 13.8 33.3 L 13.8 29 C 14.4 29.3 15.1 29.7 16 29.9 L 16.6 28 C 14.6 27.4 13.8 26.6 13.8 26.3 L 13.8 22 C 16.1 23.3 19.9 23.9 23.6 23.9 C 27.5 23.9 31.3 23.2 33.6 21.9 L 33.6 26.3 C 33.6 26.6 32.9 27.4 30.8 28 L 31.4 29.9 Z M 23.6 16.6 C 29.8 16.6 33.6 18.3 33.6 19.3 C 33.6 20.2 29.8 21.9 23.6 21.9 C 17.3 21.9 13.8 20.2 13.8 19.3 C 13.8 18.3 17.3 16.6 23.6 16.6 L 23.6 16.6 Z M 35.6 19.3 C 35.6 16.2 29.5 14.6 23.6 14.6 C 17.9 14.6 11.8 16 11.8 19.3 L 11.8 19.4 L 11.8 39.8 C 11.8 42.9 17.8 44.5 23.7 44.5 C 29.6 44.5 35.6 42.9 35.6 39.8 L 35.6 19.4 L 35.6 19.3 Z" id="Amazon-DATABASE_Amazon-ElastiCache_Elasticache-for-Redis_Resource-Icon_light-bg" fill="#ffffff"></path>
    </g>
</svg>